<?xml version="1.0"?>
<!DOCTYPE svg PUBLIC "-//W3C//DTD SVG 1.1//EN" "http://www.w3.org/Graphics/SVG/1.1/DTD/svg11.dtd">
<svg xmlns="http://www.w3.org/2000/svg" xmlns:xl="http://www.w3.org/1999/xlink" version="1.1" viewBox="1 1 46 46" width="46pt" height="46pt"><metadata xmlns:dc="http://purl.org/dc/elements/1.1/"><dc:date>2013-09-19 09:19Z</dc:date><!-- Produced by OmniGraffle Professional 5.4.4 --></metadata><defs></defs><g stroke="none" stroke-opacity="1" stroke-dasharray="none" fill="none" fill-opacity="1"><title>Canvas 1</title><g><title>Layer 2</title><line x1="8" y1="24.25" x2="33" y2="24.25" stroke="#787878" stroke-opacity=".8" stroke-linecap="round" stroke-linejoin="round" stroke-width="4"/></g><g><title>Layer 1</title><path d="M 3 1 L 13 1 C 14.1045695 1 15 1.8954305 15 3 L 15 12 C 15 13.1045695 14.1045695 14 13 14 L 3 14 C 1.8954305 14 1 13.1045695 1 12 L 1 3 C 1 1.8954305 1.8954305 1 3 1 Z" fill="#787878"/><path d="M 3 17 L 13 17 C 14.1045695 17 15 17.89543 15 19 L 15 29 C 15 30.10457 14.1045695 31 13 31 L 3 31 C 1.8954305 31 1 30.10457 1 29 L 1 19 C 1 17.89543 1.8954305 17 3 17 Z" fill="#787878"/><path d="M 3 35 L 12 35 C 13.1045695 35 14 35.89543 14 37 L 14 45 C 14 46.10457 13.1045695 47 12 47 L 3 47 C 1.8954305 47 1 46.10457 1 45 L 1 37 C 1 35.89543 1.8954305 35 3 35 Z" fill="#787878"/><path d="M 34 18 L 45 18 C 46.10457 18 47 18.89543 47 20 L 47 28 C 47 29.10457 46.10457 30 45 30 L 34 30 C 32.89543 30 32 29.10457 32 28 L 32 20 C 32 18.89543 32.89543 18 34 18 Z" fill="#787878"/></g></g></svg>
