<?xml version="1.0"?>
<!DOCTYPE svg PUBLIC "-//W3C//DTD SVG 1.1//EN" "http://www.w3.org/Graphics/SVG/1.1/DTD/svg11.dtd">
<svg xmlns="http://www.w3.org/2000/svg" xmlns:xl="http://www.w3.org/1999/xlink" version="1.1" viewBox="0 1 42 45" width="42pt" height="45pt"><metadata xmlns:dc="http://purl.org/dc/elements/1.1/"><dc:date>2013-09-19 07:00Z</dc:date><!-- Produced by OmniGraffle Professional 5.4.4 --></metadata><defs></defs><g stroke="none" stroke-opacity="1" stroke-dasharray="none" fill="none" fill-opacity="1"><title>Canvas 1</title><g><title>Layer 1</title><path d="M 12.2252774 32.062843 C 14.270727 31.75872 15.982146 33.187724 16.047839 35.254616 C 16.113542 37.321506 14.508642 39.243583 12.4631915 39.547696 C 10.4177414 39.85182 8.706323 38.422815 8.64063 36.355923 C 8.5749264 34.289033 10.179827 32.366956 12.2252774 32.062843" fill="#158826"/><path d="M 12.2252774 32.062843 C 14.270727 31.75872 15.982146 33.187724 16.047839 35.254616 C 16.113542 37.321506 14.508642 39.243583 12.4631915 39.547696 C 10.4177414 39.85182 8.706323 38.422815 8.64063 36.355923 C 8.5749264 34.289033 10.179827 32.366956 12.2252774 32.062843" stroke="#0c4b15" stroke-linecap="round" stroke-linejoin="round" stroke-width=".25"/><path d="M 38.95999 10.333543 L 38.95999 10.333543 C 39.190994 10.835195 38.971591 11.4291314 38.469939 11.6601364 C 38.469939 11.6601364 38.469939 11.6601364 38.469939 11.6601364 L 32.279852 14.510598 C 31.7782 14.741603 31.184263 14.5222 30.953258 14.0205475 L 30.953258 14.0205475 C 30.722253 13.518895 30.941656 12.924959 31.443309 12.693954 L 37.633396 9.8434923 C 38.135048 9.6124874 38.728984 9.8318904 38.95999 10.333543 Z" fill="#158826"/><path d="M 38.95999 10.333543 L 38.95999 10.333543 C 39.190994 10.835195 38.971591 11.4291314 38.469939 11.6601364 C 38.469939 11.6601364 38.469939 11.6601364 38.469939 11.6601364 L 32.279852 14.510598 C 31.7782 14.741603 31.184263 14.5222 30.953258 14.0205475 L 30.953258 14.0205475 C 30.722253 13.518895 30.941656 12.924959 31.443309 12.693954 L 37.633396 9.8434923 C 38.135048 9.6124874 38.728984 9.8318904 38.95999 10.333543 Z" stroke="#0c4b15" stroke-linecap="round" stroke-linejoin="round" stroke-width=".25"/><path d="M 31.065825 3.8556168 L 31.065825 3.8556168 C 31.600722 3.9931054 31.922886 4.538182 31.785397 5.0730796 L 30.121488 11.546494 C 29.984 12.0813915 29.438923 12.403555 28.904025 12.2660664 C 28.904025 12.2660664 28.904025 12.2660664 28.904025 12.2660664 L 28.904025 12.2660664 C 28.369128 12.128578 28.046964 11.583501 28.184453 11.048604 L 29.848362 4.5751892 C 29.98585 4.0402917 30.530927 3.7181282 31.065825 3.8556168 Z" fill="#158826"/><path d="M 31.065825 3.8556168 L 31.065825 3.8556168 C 31.600722 3.9931054 31.922886 4.538182 31.785397 5.0730796 L 30.121488 11.546494 C 29.984 12.0813915 29.438923 12.403555 28.904025 12.2660664 C 28.904025 12.2660664 28.904025 12.2660664 28.904025 12.2660664 L 28.904025 12.2660664 C 28.369128 12.128578 28.046964 11.583501 28.184453 11.048604 L 29.848362 4.5751892 C 29.98585 4.0402917 30.530927 3.7181282 31.065825 3.8556168 Z" stroke="#0c4b15" stroke-linecap="round" stroke-linejoin="round" stroke-width=".25"/><path d="M 26.668098 21.74479 L 26.668098 21.74479 C 26.669653 21.192508 27.118627 20.746055 27.67091 20.74761 C 27.67091 20.74761 27.67091 20.74761 27.67091 20.74761 L 37.003449 20.773885 C 37.555731 20.77544 38.002184 21.224414 38.00063 21.776697 C 38.00063 21.776697 38.00063 21.776697 38.00063 21.776697 L 38.00063 21.776697 C 37.999074 22.32898 37.5501 22.775432 36.997818 22.773877 L 27.665279 22.747602 C 27.112996 22.746047 26.666543 22.297073 26.668098 21.74479 Z" fill="#158826"/><path d="M 26.668098 21.74479 L 26.668098 21.74479 C 26.669653 21.192508 27.118627 20.746055 27.67091 20.74761 C 27.67091 20.74761 27.67091 20.74761 27.67091 20.74761 L 37.003449 20.773885 C 37.555731 20.77544 38.002184 21.224414 38.00063 21.776697 C 38.00063 21.776697 38.00063 21.776697 38.00063 21.776697 L 38.00063 21.776697 C 37.999074 22.32898 37.5501 22.775432 36.997818 22.773877 L 27.665279 22.747602 C 27.112996 22.746047 26.666543 22.297073 26.668098 21.74479 Z" stroke="#0c4b15" stroke-linecap="round" stroke-linejoin="round" stroke-width=".25"/><path d="M 19.033849 8.982217 L 19.033849 8.982217 C 19.522769 8.7253594 20.127341 8.913483 20.384199 9.402403 L 24.688142 17.594815 C 24.945 18.083735 24.756876 18.688307 24.267956 18.945165 C 24.267956 18.945165 24.267956 18.945165 24.267956 18.945165 L 24.267956 18.945165 C 23.779036 19.202022 23.174464 19.013899 22.917606 18.524979 L 18.613663 10.3325665 C 18.356806 9.8436466 18.54493 9.2390745 19.033849 8.982217 C 19.033849 8.982217 19.033849 8.982217 19.033849 8.982217 Z" fill="#158826"/><path d="M 19.033849 8.982217 L 19.033849 8.982217 C 19.522769 8.7253594 20.127341 8.913483 20.384199 9.402403 L 24.688142 17.594815 C 24.945 18.083735 24.756876 18.688307 24.267956 18.945165 C 24.267956 18.945165 24.267956 18.945165 24.267956 18.945165 L 24.267956 18.945165 C 23.779036 19.202022 23.174464 19.013899 22.917606 18.524979 L 18.613663 10.3325665 C 18.356806 9.8436466 18.54493 9.2390745 19.033849 8.982217 C 19.033849 8.982217 19.033849 8.982217 19.033849 8.982217 Z" stroke="#0c4b15" stroke-linecap="round" stroke-linejoin="round" stroke-width=".25"/><path d="M 13.959136 31.538096 L 13.959136 31.538096 C 13.818977 32.0723 13.272297 32.391736 12.7380935 32.251576 L 3.7962685 29.905504 C 3.2620646 29.765344 2.9426285 29.218665 3.0827879 28.684461 L 3.0827879 28.684461 C 3.2229473 28.150257 3.7696268 27.830821 4.3038307 27.97098 L 13.245656 30.317053 C 13.7798595 30.457212 14.099296 31.003892 13.959136 31.538096 Z" fill="#158826"/><path d="M 13.959136 31.538096 L 13.959136 31.538096 C 13.818977 32.0723 13.272297 32.391736 12.7380935 32.251576 L 3.7962685 29.905504 C 3.2620646 29.765344 2.9426285 29.218665 3.0827879 28.684461 L 3.0827879 28.684461 C 3.2229473 28.150257 3.7696268 27.830821 4.3038307 27.97098 L 13.245656 30.317053 C 13.7798595 30.457212 14.099296 31.003892 13.959136 31.538096 Z" stroke="#0c4b15" stroke-linecap="round" stroke-linejoin="round" stroke-width=".25"/><path d="M 15.703838 33.412376 L 15.703838 33.412376 C 16.192757 33.155518 16.797329 33.343642 17.054187 33.832562 L 21.217024 41.756383 C 21.473881 42.245303 21.285758 42.849875 20.796838 43.106733 C 20.796838 43.106733 20.796838 43.106733 20.796838 43.106733 L 20.796838 43.106733 C 20.307918 43.36359 19.703346 43.175467 19.446488 42.686547 L 15.283652 34.762725 C 15.026794 34.273806 15.214918 33.669234 15.703838 33.412376 C 15.703838 33.412376 15.703838 33.412376 15.703838 33.412376 Z" fill="#158826"/><path d="M 15.703838 33.412376 L 15.703838 33.412376 C 16.192757 33.155518 16.797329 33.343642 17.054187 33.832562 L 21.217024 41.756383 C 21.473881 42.245303 21.285758 42.849875 20.796838 43.106733 C 20.796838 43.106733 20.796838 43.106733 20.796838 43.106733 L 20.796838 43.106733 C 20.307918 43.36359 19.703346 43.175467 19.446488 42.686547 L 15.283652 34.762725 C 15.026794 34.273806 15.214918 33.669234 15.703838 33.412376 C 15.703838 33.412376 15.703838 33.412376 15.703838 33.412376 Z" stroke="#0c4b15" stroke-linecap="round" stroke-linejoin="round" stroke-width=".25"/><path d="M 13.796067 11.372403 L 13.796067 11.372403 C 14.25552 11.065938 14.87642 11.189959 15.182886 11.649412 C 15.182886 11.649412 15.182886 11.649412 15.182886 11.649412 L 19.745212 18.489255 C 20.051678 18.948709 19.927656 19.569609 19.468203 19.876074 L 19.468203 19.876074 C 19.00875 20.18254 18.38785 20.058518 18.081384 19.599065 C 18.081384 19.599065 18.081384 19.599065 18.081384 19.599065 L 13.519058 12.759222 C 13.212593 12.299769 13.336614 11.678869 13.796067 11.372403 Z" fill="#158826"/><path d="M 13.796067 11.372403 L 13.796067 11.372403 C 14.25552 11.065938 14.87642 11.189959 15.182886 11.649412 C 15.182886 11.649412 15.182886 11.649412 15.182886 11.649412 L 19.745212 18.489255 C 20.051678 18.948709 19.927656 19.569609 19.468203 19.876074 L 19.468203 19.876074 C 19.00875 20.18254 18.38785 20.058518 18.081384 19.599065 C 18.081384 19.599065 18.081384 19.599065 18.081384 19.599065 L 13.519058 12.759222 C 13.212593 12.299769 13.336614 11.678869 13.796067 11.372403 Z" stroke="#0c4b15" stroke-linecap="round" stroke-linejoin="round" stroke-width=".25"/><path d="M 26.679499 24.315316 L 26.679499 24.315316 C 26.903936 23.810691 27.494958 23.583554 27.999583 23.807991 L 36.527777 27.600993 C 37.032402 27.82543 37.259539 28.416452 37.035102 28.921077 C 37.035102 28.921077 37.035102 28.921077 37.035102 28.921077 L 37.035102 28.921077 C 36.810664 29.425702 36.219643 29.65284 35.715018 29.428402 L 27.186824 25.6354 C 26.682199 25.410963 26.455062 24.819941 26.679499 24.315316 Z" fill="#158826"/><path d="M 26.679499 24.315316 L 26.679499 24.315316 C 26.903936 23.810691 27.494958 23.583554 27.999583 23.807991 L 36.527777 27.600993 C 37.032402 27.82543 37.259539 28.416452 37.035102 28.921077 C 37.035102 28.921077 37.035102 28.921077 37.035102 28.921077 L 37.035102 28.921077 C 36.810664 29.425702 36.219643 29.65284 35.715018 29.428402 L 27.186824 25.6354 C 26.682199 25.410963 26.455062 24.819941 26.679499 24.315316 Z" stroke="#0c4b15" stroke-linecap="round" stroke-linejoin="round" stroke-width=".25"/><path d="M 14.127713 26.089221 L 14.127713 26.089221 C 13.899677 26.59223 13.307048 26.81514 12.804039 26.587105 L 4.9107786 23.008751 C 4.4077695 22.780716 4.1848594 22.188087 4.412895 21.685078 C 4.412895 21.685078 4.412895 21.685078 4.412895 21.685078 L 4.412895 21.685078 C 4.6409306 21.182069 5.2335595 20.959159 5.7365687 21.187194 L 13.629829 24.765548 C 14.132838 24.993583 14.355748 25.586212 14.127713 26.089221 C 14.127713 26.089221 14.127713 26.089221 14.127713 26.089221 Z" fill="#158826"/><path d="M 14.127713 26.089221 L 14.127713 26.089221 C 13.899677 26.59223 13.307048 26.81514 12.804039 26.587105 L 4.9107786 23.008751 C 4.4077695 22.780716 4.1848594 22.188087 4.412895 21.685078 C 4.412895 21.685078 4.412895 21.685078 4.412895 21.685078 L 4.412895 21.685078 C 4.6409306 21.182069 5.2335595 20.959159 5.7365687 21.187194 L 13.629829 24.765548 C 14.132838 24.993583 14.355748 25.586212 14.127713 26.089221 C 14.127713 26.089221 14.127713 26.089221 14.127713 26.089221 Z" stroke="#0c4b15" stroke-linecap="round" stroke-linejoin="round" stroke-width=".25"/><path d="M 20.352408 31.791387 L 20.352408 31.791387 C 20.789795 31.454176 21.41773 31.535385 21.754941 31.972771 L 26.981295 38.75173 C 27.318506 39.189116 27.237297 39.817051 26.79991 40.154262 L 26.79991 40.154262 C 26.362523 40.491473 25.734588 40.410264 25.397377 39.972878 L 20.171023 33.19392 C 19.833813 32.756533 19.915021 32.128598 20.352408 31.791387 C 20.352408 31.791387 20.352408 31.791387 20.352408 31.791387 Z" fill="#158826"/><path d="M 20.352408 31.791387 L 20.352408 31.791387 C 20.789795 31.454176 21.41773 31.535385 21.754941 31.972771 L 26.981295 38.75173 C 27.318506 39.189116 27.237297 39.817051 26.79991 40.154262 L 26.79991 40.154262 C 26.362523 40.491473 25.734588 40.410264 25.397377 39.972878 L 20.171023 33.19392 C 19.833813 32.756533 19.915021 32.128598 20.352408 31.791387 C 20.352408 31.791387 20.352408 31.791387 20.352408 31.791387 Z" stroke="#0c4b15" stroke-linecap="round" stroke-linejoin="round" stroke-width=".25"/><path d="M 25.026585 29.147285 L 25.026585 29.147285 C 25.380561 28.723352 26.011181 28.666641 26.435114 29.020618 L 32.969294 34.476544 C 33.393226 34.83052 33.449937 35.461141 33.09596 35.885074 C 33.09596 35.885074 33.09596 35.885074 33.09596 35.885074 L 33.09596 35.885074 C 32.741984 36.309007 32.111364 36.365718 31.687431 36.01174 L 25.153252 30.555814 C 24.729319 30.201838 24.672608 29.571217 25.026585 29.147285 C 25.026585 29.147285 25.026585 29.147285 25.026585 29.147285 Z" fill="#158826"/><path d="M 25.026585 29.147285 L 25.026585 29.147285 C 25.380561 28.723352 26.011181 28.666641 26.435114 29.020618 L 32.969294 34.476544 C 33.393226 34.83052 33.449937 35.461141 33.09596 35.885074 C 33.09596 35.885074 33.09596 35.885074 33.09596 35.885074 L 33.09596 35.885074 C 32.741984 36.309007 32.111364 36.365718 31.687431 36.01174 L 25.153252 30.555814 C 24.729319 30.201838 24.672608 29.571217 25.026585 29.147285 C 25.026585 29.147285 25.026585 29.147285 25.026585 29.147285 Z" stroke="#0c4b15" stroke-linecap="round" stroke-linejoin="round" stroke-width=".25"/><path d="M 8.034252 14.958979 L 8.034252 14.958979 C 8.3882283 14.535046 9.0188485 14.478335 9.4427813 14.832312 L 16.456338 20.68851 C 16.880271 21.042487 16.936981 21.673107 16.583005 22.09704 C 16.583005 22.09704 16.583005 22.09704 16.583005 22.09704 L 16.583005 22.09704 C 16.229028 22.520972 15.598408 22.577683 15.174475 22.223707 L 8.160919 16.367508 C 7.736986 16.013532 7.680275 15.3829115 8.034252 14.958979 C 8.034252 14.958979 8.034252 14.958979 8.034252 14.958979 Z" fill="#158826"/><path d="M 8.034252 14.958979 L 8.034252 14.958979 C 8.3882283 14.535046 9.0188485 14.478335 9.4427813 14.832312 L 16.456338 20.68851 C 16.880271 21.042487 16.936981 21.673107 16.583005 22.09704 C 16.583005 22.09704 16.583005 22.09704 16.583005 22.09704 L 16.583005 22.09704 C 16.229028 22.520972 15.598408 22.577683 15.174475 22.223707 L 8.160919 16.367508 C 7.736986 16.013532 7.680275 15.3829115 8.034252 14.958979 C 8.034252 14.958979 8.034252 14.958979 8.034252 14.958979 Z" stroke="#0c4b15" stroke-linecap="round" stroke-linejoin="round" stroke-width=".25"/><path d="M 21.989041 14.826267 C 27.916103 12.9069535 32.047236 16.356378 31.216188 22.530775 C 30.385171 28.705163 24.906674 35.266373 18.979617 37.185655 C 13.052555 39.10497 8.9214226 35.655545 9.75247 29.481147 C 10.583487 23.30676 16.061984 16.745549 21.989041 14.826267" fill="#158826"/><path d="M 21.989041 14.826267 C 27.916103 12.9069535 32.047236 16.356378 31.216188 22.530775 C 30.385171 28.705163 24.906674 35.266373 18.979617 37.185655 C 13.052555 39.10497 8.9214226 35.655545 9.75247 29.481147 C 10.583487 23.30676 16.061984 16.745549 21.989041 14.826267" stroke="#0c4b15" stroke-linecap="round" stroke-linejoin="round" stroke-width=".25"/><path d="M 28.833787 9.4815604 C 31.434233 9.1090707 33.621304 10.9352364 33.718747 13.5604175 C 33.816204 16.185597 31.78713 18.615675 29.186683 18.988151 C 26.586237 19.360641 24.399167 17.534475 24.301723 14.909294 C 24.204267 12.2841146 26.23334 9.8540366 28.833787 9.4815604" fill="#158826"/><path d="M 28.833787 9.4815604 C 31.434233 9.1090707 33.621304 10.9352364 33.718747 13.5604175 C 33.816204 16.185597 31.78713 18.615675 29.186683 18.988151 C 26.586237 19.360641 24.399167 17.534475 24.301723 14.909294 C 24.204267 12.2841146 26.23334 9.8540366 28.833787 9.4815604" stroke="#0c4b15" stroke-linecap="round" stroke-linejoin="round" stroke-width=".25"/><circle cx="29.028224" cy="11.8876736" r=".50000077" fill="white"/><circle cx="29.028224" cy="11.8876736" r=".50000077" stroke="#0c4b15" stroke-linecap="round" stroke-linejoin="round" stroke-width="1"/><circle cx="31.653224" cy="14.0126736" r=".50000077" fill="white"/><circle cx="31.653224" cy="14.0126736" r=".50000077" stroke="#0c4b15" stroke-linecap="round" stroke-linejoin="round" stroke-width="1"/><circle cx="19.375" cy="19.625" r=".50000077" fill="white"/><circle cx="19.375" cy="19.625" r=".50000077" stroke="#353535" stroke-linecap="round" stroke-linejoin="round" stroke-width="1"/><circle cx="20.125" cy="24.375" r=".50000077" fill="white"/><circle cx="20.125" cy="24.375" r=".50000077" stroke="#353535" stroke-linecap="round" stroke-linejoin="round" stroke-width="1"/><circle cx="17.25" cy="29.25" r=".50000077" fill="white"/><circle cx="17.25" cy="29.25" r=".50000077" stroke="#353535" stroke-linecap="round" stroke-linejoin="round" stroke-width="1"/><circle cx="14.75" cy="25.125" r=".50000077" fill="white"/><circle cx="14.75" cy="25.125" r=".50000077" stroke="#353535" stroke-linecap="round" stroke-linejoin="round" stroke-width="1"/><circle cx="22.5" cy="29.5" r=".50000077" fill="white"/><circle cx="22.5" cy="29.5" r=".50000077" stroke="#353535" stroke-linecap="round" stroke-linejoin="round" stroke-width="1"/><circle cx="25.5" cy="25.5" r=".50000077" fill="white"/><circle cx="25.5" cy="25.5" r=".50000077" stroke="#353535" stroke-linecap="round" stroke-linejoin="round" stroke-width="1"/><circle cx="25.125" cy="21.125" r=".50000077" fill="white"/><circle cx="25.125" cy="21.125" r=".50000077" stroke="#353535" stroke-linecap="round" stroke-linejoin="round" stroke-width="1"/><circle cx="19.5" cy="33.5" r=".50000077" fill="white"/><circle cx="19.5" cy="33.5" r=".50000077" stroke="#353535" stroke-linecap="round" stroke-linejoin="round" stroke-width="1"/><circle cx="13.875" cy="33.25" r=".50000077" fill="white"/><circle cx="13.875" cy="33.25" r=".50000077" stroke="#353535" stroke-linecap="round" stroke-linejoin="round" stroke-width="1"/><circle cx="11.875" cy="29.25" r=".50000077" fill="white"/><circle cx="11.875" cy="29.25" r=".50000077" stroke="#353535" stroke-linecap="round" stroke-linejoin="round" stroke-width="1"/></g></g></svg>
