<?xml version="1.0"?>
<!DOCTYPE svg PUBLIC "-//W3C//DTD SVG 1.1//EN" "http://www.w3.org/Graphics/SVG/1.1/DTD/svg11.dtd">
<svg xmlns="http://www.w3.org/2000/svg" xmlns:xl="http://www.w3.org/1999/xlink" version="1.1" viewBox="-1 -4 50 53" width="50pt" height="53pt"><metadata xmlns:dc="http://purl.org/dc/elements/1.1/"><dc:date>2013-09-19 06:24Z</dc:date><!-- Produced by OmniGraffle Professional 5.4.4 --></metadata><defs></defs><g stroke="none" stroke-opacity="1" stroke-dasharray="none" fill="none" fill-opacity="1"><title>Canvas 1</title><g><title>Layer 1</title><path d="M 3.9995755 41.72818 L 21.282929 4.804651 C 21.985336 3.3040543 23.771224 2.6569937 25.27182 3.3594006 C 25.907886 3.6571336 26.419338 4.168585 26.71707 4.804651 L 44.000425 41.72818 C 44.702831 43.228776 44.05577 45.014664 42.555174 45.71707 C 42.15708 45.903413 41.722902 46 41.283354 46 L 6.716646 46 C 5.059792 46 3.7166461 44.656854 3.7166461 43 C 3.7166461 42.560452 3.8132335 42.126274 3.9995755 41.72818 Z" fill="#fff8f5"/><path d="M 3.9995755 41.72818 L 21.282929 4.804651 C 21.985336 3.3040543 23.771224 2.6569937 25.27182 3.3594006 C 25.907886 3.6571336 26.419338 4.168585 26.71707 4.804651 L 44.000425 41.72818 C 44.702831 43.228776 44.05577 45.014664 42.555174 45.71707 C 42.15708 45.903413 41.722902 46 41.283354 46 L 6.716646 46 C 5.059792 46 3.7166461 44.656854 3.7166461 43 C 3.7166461 42.560452 3.8132335 42.126274 3.9995755 41.72818 Z" stroke="#b61800" stroke-linecap="round" stroke-linejoin="round" stroke-width="4"/></g><g><title>Layer 2</title><path d="M 24 16 L 24 16 C 25.10457 16 26 16.89543 26 18 L 26 30 C 26 31.10457 25.10457 32 24 32 L 24 32 C 22.89543 32 22 31.10457 22 30 L 22 18 C 22 16.89543 22.89543 16 24 16 Z" fill="black"/><path d="M 24 35 L 24 35 C 25.10457 35 26 35.89543 26 37 L 26 38 C 26 39.10457 25.10457 40 24 40 L 24 40 C 22.89543 40 22 39.10457 22 38 L 22 37 C 22 35.89543 22.89543 35 24 35 Z" fill="black"/></g></g></svg>
