<?xml version="1.0"?>
<!DOCTYPE svg PUBLIC "-//W3C//DTD SVG 1.1//EN" "http://www.w3.org/Graphics/SVG/1.1/DTD/svg11.dtd">
<svg xmlns="http://www.w3.org/2000/svg" xmlns:xl="http://www.w3.org/1999/xlink" version="1.1" viewBox="-2 -2 52 52" width="52pt" height="52pt"><metadata xmlns:dc="http://purl.org/dc/elements/1.1/"><dc:date>2013-09-19 07:17Z</dc:date><!-- Produced by OmniGraffle Professional 5.4.4 --></metadata><defs></defs><g stroke="none" stroke-opacity="1" stroke-dasharray="none" fill="none" fill-opacity="1"><title>Canvas 1</title><g><title>Layer 1</title><circle cx="24" cy="24" r="23.000036" fill="#527dca"/><circle cx="24" cy="24" r="23.000036" stroke="#353535" stroke-linecap="round" stroke-linejoin="round" stroke-width="3"/></g><g><title>Layer 2</title><path d="M 23 20 L 25 20 C 26.10457 20 27 20.89543 27 22 L 27 35 C 27 36.10457 26.10457 37 25 37 L 23 37 C 21.89543 37 21 36.10457 21 35 L 21 22 C 21 20.89543 21.89543 20 23 20 Z" fill="white"/><path d="M 23 10 L 25 10 C 26.10457 10 27 10.8954305 27 12 L 27 14 C 27 15.1045695 26.10457 16 25 16 L 23 16 C 21.89543 16 21 15.1045695 21 14 L 21 12 C 21 10.8954305 21.89543 10 23 10 Z" fill="white"/></g></g></svg>
