<?xml version="1.0" encoding="utf-8"?> <!-- Generator: IcoMoon.io --> <!DOCTYPE svg PUBLIC "-//W3C//DTD SVG 1.1//EN" "http://www.w3.org/Graphics/SVG/1.1/DTD/svg11.dtd"> <svg version="1.1" id="Layer_1" xmlns="http://www.w3.org/2000/svg" xmlns:xlink="http://www.w3.org/1999/xlink" x="0px" y="0px" width="48px" height="48px" viewBox="0 0 48 48" enable-background="new 0 0 16 16" xml:space="preserve" fill="#000000"> <path d="M 6.879,20.118 L 0.879,14.118 C 0.294,13.533 0.00,12.765 0.00,11.997 C 0.00,11.229 0.294,10.461 0.879,9.876 L 6.879,3.876 C 7.737,3.021 9.027,2.763 10.149,3.225 C 11.268,3.687 12.00,4.785 12.00,5.997 L 12.00,9.00 L 15.00,9.00 L 15.00,15.00 L 12.00,15.00 L 12.00,17.997 C 12.00,19.209 11.268,20.307 10.149,20.769 C 9.027,21.231 7.737,20.976 6.879,20.118 ZM 41.121,27.876 L 47.121,33.876 C 47.706,34.461 48.00,35.229 48.00,35.997 C 48.00,36.765 47.706,37.533 47.121,38.118 L 41.121,44.118 C 40.263,44.976 38.973,45.231 37.851,44.769 C 36.732,44.307 36.00,43.209 36.00,41.997 L 36.00,39.00 L 33.00,39.00 L 33.00,33.00 L 36.00,33.00 L 36.00,29.997 C 36.00,28.785 36.732,27.687 37.851,27.225 C 38.973,26.763 40.263,27.021 41.121,27.876 ZM 21.00,33.00L 24.00,33.00L 24.00,39.00L 21.00,39.00zM 18.00,9.00L 21.00,9.00L 21.00,15.00L 18.00,15.00zM 15.00,27.00L3.00,27.00 c-1.656,0.00-3.00,1.344-3.00,3.00l0.00,12.00 c0.00,1.659, 1.344,3.00, 3.00,3.00l12.00,0.00 c 1.656,0.00, 3.00-1.341, 3.00-3.00l0.00,-12.00 C 18.00,28.344, 16.656,27.00, 15.00,27.00z M 12.00,39.00L6.00,39.00 l0.00,-6.00 l6.00,0.00 L12.00,39.00 zM 24.00,9.00L 27.00,9.00L 27.00,15.00L 24.00,15.00zM 45.00,3.00l-12.00,0.00 c-1.659,0.00-3.00,1.344-3.00,3.00l0.00,12.00 c0.00,1.656, 1.341,3.00, 3.00,3.00l12.00,0.00 c 1.659,0.00, 3.00-1.344, 3.00-3.00L48.00,6.00 C 48.00,4.344, 46.659,3.00, 45.00,3.00z M 42.00,15.00l-6.00,0.00 L36.00,9.00 l6.00,0.00 L42.00,15.00 zM 27.00,33.00L 30.00,33.00L 30.00,39.00L 27.00,39.00z" ></path></svg>