<?xml version="1.0"?>
<!DOCTYPE svg PUBLIC "-//W3C//DTD SVG 1.1//EN" "http://www.w3.org/Graphics/SVG/1.1/DTD/svg11.dtd">
<svg xmlns="http://www.w3.org/2000/svg" xmlns:xl="http://www.w3.org/1999/xlink" version="1.1" viewBox="-3 -4 54 53" width="54pt" height="53pt"><metadata xmlns:dc="http://purl.org/dc/elements/1.1/"><dc:date>2013-09-19 06:25Z</dc:date><!-- Produced by OmniGraffle Professional 5.4.4 --></metadata><defs></defs><g stroke="none" stroke-opacity="1" stroke-dasharray="none" fill="none" fill-opacity="1"><title>Canvas 1</title><g><title>Layer 1</title><path d="M 2.2285948 41.635669 L 21.328184 4.232306 C 22.081684 2.7567028 23.888728 2.1713221 25.364331 2.9248216 C 25.926951 3.2121168 26.38452 3.6696862 26.671816 4.232306 L 45.771405 41.635669 C 46.524905 43.111272 45.939524 44.918316 44.46392 45.671816 C 44.041483 45.88753 43.573916 46 43.09959 46 L 4.9004106 46 C 3.2435563 46 1.9004106 44.656854 1.9004106 43 C 1.9004106 42.525673 2.0128819 42.058106 2.2285948 41.635669 Z" fill="#ffd431"/><path d="M 2.2285948 41.635669 L 21.328184 4.232306 C 22.081684 2.7567028 23.888728 2.1713221 25.364331 2.9248216 C 25.926951 3.2121168 26.38452 3.6696862 26.671816 4.232306 L 45.771405 41.635669 C 46.524905 43.111272 45.939524 44.918316 44.46392 45.671816 C 44.041483 45.88753 43.573916 46 43.09959 46 L 4.9004106 46 C 3.2435563 46 1.9004106 44.656854 1.9004106 43 C 1.9004106 42.525673 2.0128819 42.058106 2.2285948 41.635669 Z" stroke="#353535" stroke-linecap="round" stroke-linejoin="round" stroke-width="4"/></g><g><title>Layer 2</title><path d="M 24 16 L 24 16 C 25.10457 16 26 16.89543 26 18 L 26 30 C 26 31.10457 25.10457 32 24 32 L 24 32 C 22.89543 32 22 31.10457 22 30 L 22 18 C 22 16.89543 22.89543 16 24 16 Z" fill="black"/><path d="M 24 35 L 24 35 C 25.10457 35 26 35.89543 26 37 L 26 38 C 26 39.10457 25.10457 40 24 40 L 24 40 C 22.89543 40 22 39.10457 22 38 L 22 37 C 22 35.89543 22.89543 35 24 35 Z" fill="black"/></g></g></svg>
